# xmcd
#
# Track frame offsets:
#       150
#       12945
#       26932
#       41493
#       55101
#       68339
#       82228
#       96083
#       111517
#       124996
#       138986
#       151956
#       165184
#       178794
#       192779
#       205694
#       221109
#       234580
#       247420
#       262139
#
# Disc length: 3685 seconds
#
# Revision: 2
# Processed by: cddbd v1.4PL0 Copyright (c) Steve Scherf et al.
# Submitted via: WhereIsIt 3.51
#
DISCID=230e6314
DTITLE=Various Artist - Nothing But the Blues: Disc 10
DYEAR=1900
DGENRE=
TTITLE0=Friendless city blues
TTITLE1=Did you read that letter
TTITLE2=Black and evil blues
TTITLE3=Paul and Sila's bound in jail
TTITLE4=New kilk cow blues
TTITLE5=Milk cow blues
TTITLE6=Black man
TTITLE7=Lord, I want to die easy
TTITLE8=My father is a husbandman
TTITLE9=Howiling wolf blues
TTITLE10=Low cotton
TTITLE11=Bed springs blues
TTITLE12=Stormy weather no1
TTITLE13=Greenville Sheik
TTITLE14=Lazy black snake blues
TTITLE15=Welfare blues
TTITLE16=Silicosis is killin'me
TTITLE17=Double crossing woman
TTITLE18=Downhearted man blues
TTITLE19=Badly mistreated man
EXTD=
EXTT0=
EXTT1=
EXTT2=
EXTT3=
EXTT4=
EXTT5=
EXTT6=
EXTT7=
EXTT8=
EXTT9=
EXTT10=
EXTT11=
EXTT12=
EXTT13=
EXTT14=
EXTT15=
EXTT16=
EXTT17=
EXTT18=
EXTT19=
PLAYORDER=
